<?xml version="1.0" encoding="UTF-8"?>
<svg version="1.1" xmlns="http://www.w3.org/2000/svg" width="24" height="24">
<path d="M0 0 C7.92 0 15.84 0 24 0 C24 5.28 24 10.56 24 16 C16.08 16 8.16 16 0 16 C0 10.72 0 5.44 0 0 Z " fill="#A585AD" transform="translate(0,4)"/>
<path d="M0 0 C3.63 0 7.26 0 11 0 C11 2.31 11 4.62 11 7 C7.37 7 3.74 7 0 7 C0 4.69 0 2.38 0 0 Z " fill="#A281AA" transform="translate(13,13)"/>
<path d="M0 0 C3.63 0 7.26 0 11 0 C11 2.31 11 4.62 11 7 C7.37 7 3.74 7 0 7 C0 4.69 0 2.38 0 0 Z " fill="#C49FB9" transform="translate(0,4)"/>
<path d="M0 0 C3.63 0 7.26 0 11 0 C11 2.31 11 4.62 11 7 C7.37 7 3.74 7 0 7 C0 4.69 0 2.38 0 0 Z " fill="#C39DB8" transform="translate(13,4)"/>
<path d="M0 0 C0.66 0 1.32 0 2 0 C2 2.31 2 4.62 2 7 C5.63 7 9.26 7 13 7 C13 7.66 13 8.32 13 9 C9.37 9 5.74 9 2 9 C2 11.31 2 13.62 2 16 C1.34 16 0.68 16 0 16 C0 13.69 0 11.38 0 9 C-3.63 9 -7.26 9 -11 9 C-11 8.34 -11 7.68 -11 7 C-7.37 7 -3.74 7 0 7 C0 4.69 0 2.38 0 0 Z " fill="#FE4C56" transform="translate(11,4)"/>
<path d="M0 0 C3.63 0 7.26 0 11 0 C11 0.33 11 0.66 11 1 C9.02 1.33 7.04 1.66 5 2 C5 2.66 5 3.32 5 4 C4.01 3.67 3.02 3.34 2 3 C1.34 4.32 0.68 5.64 0 7 C0 4.69 0 2.38 0 0 Z " fill="#EFC4CA" transform="translate(13,13)"/>
<path d="M0 0 C3.63 0 7.26 0 11 0 C11 2.31 11 4.62 11 7 C10.67 6.38125 10.34 5.7625 10 5.125 C7.04391412 1.98415875 4.19079141 1.82441798 0 1 C0 0.67 0 0.34 0 0 Z " fill="#F3C4C9" transform="translate(0,13)"/>
<path d="M0 0 C3.465 1.98 3.465 1.98 7 4 C7 4.33 7 4.66 7 5 C4.69 5 2.38 5 0 5 C0 3.35 0 1.7 0 0 Z " fill="#4B51A0" transform="translate(14,15)"/>
<path d="M0 0 C2.31 0 4.62 0 7 0 C7 1.65 7 3.3 7 5 C3.535 3.02 3.535 3.02 0 1 C0 0.67 0 0.34 0 0 Z " fill="#4B51A0" transform="translate(3,4)"/>
<path d="M0 0 C0.33 0 0.66 0 1 0 C1 1.65 1 3.3 1 5 C-1.31 5 -3.62 5 -6 5 C-5.195625 4.360625 -4.39125 3.72125 -3.5625 3.0625 C-1.7249496 1.59396498 -1.7249496 1.59396498 0 0 Z " fill="#484E9E" transform="translate(9,15)"/>
<path d="M0 0 C2.31 0 4.62 0 7 0 C2.25 3.875 2.25 3.875 0 5 C0 3.35 0 1.7 0 0 Z " fill="#474E9E" transform="translate(14,4)"/>
</svg>
