<svg id="visual" viewBox="0 0 960 540" width="960" height="540" xmlns="http://www.w3.org/2000/svg" xmlns:xlink="http://www.w3.org/1999/xlink" version="1.1"><g stroke-width="1" stroke-linejoin="bevel"><path d="M440 366L208 540L435 540Z" fill="#151210" stroke="#151210"></path><path d="M440 366L262 317L208 540Z" fill="#0d0b0a" stroke="#0d0b0a"></path><path d="M463 163L247 212L262 317Z" fill="#0f0d0b" stroke="#0f0d0b"></path><path d="M0 318L0 540L208 540Z" fill="#141210" stroke="#141210"></path><path d="M677 313L463 163L440 366Z" fill="#0c0a09" stroke="#0c0a09"></path><path d="M440 366L463 163L262 317Z" fill="#0d0b0a" stroke="#0d0b0a"></path><path d="M0 318L208 540L262 317Z" fill="#171412" stroke="#171412"></path><path d="M247 212L0 318L262 317Z" fill="#100e0c" stroke="#100e0c"></path><path d="M435 540L682 540L440 366Z" fill="#151210" stroke="#151210"></path><path d="M682 540L677 313L440 366Z" fill="#161311" stroke="#161311"></path><path d="M0 0L0 212L247 212Z" fill="#0d0b0a" stroke="#0d0b0a"></path><path d="M247 212L0 212L0 318Z" fill="#110f0d" stroke="#110f0d"></path><path d="M524 0L271 0L463 163Z" fill="#161311" stroke="#161311"></path><path d="M463 163L271 0L247 212Z" fill="#0f0d0b" stroke="#0f0d0b"></path><path d="M960 317L750 208L677 313Z" fill="#110f0d" stroke="#110f0d"></path><path d="M677 313L750 208L463 163Z" fill="#141210" stroke="#141210"></path><path d="M750 208L524 0L463 163Z" fill="#171412" stroke="#171412"></path><path d="M271 0L0 0L247 212Z" fill="#13110f" stroke="#13110f"></path><path d="M750 208L742 0L524 0Z" fill="#0f0d0b" stroke="#0f0d0b"></path><path d="M682 540L960 317L677 313Z" fill="#151210" stroke="#151210"></path><path d="M750 208L960 191L742 0Z" fill="#13110f" stroke="#13110f"></path><path d="M960 540L960 317L682 540Z" fill="#110f0d" stroke="#110f0d"></path><path d="M960 317L960 191L750 208Z" fill="#0c0a09" stroke="#0c0a09"></path><path d="M960 191L960 0L742 0Z" fill="#0f0d0b" stroke="#0f0d0b"></path></g></svg>