<svg id="visual" viewBox="0 0 960 540" width="960" height="540" xmlns="http://www.w3.org/2000/svg" xmlns:xlink="http://www.w3.org/1999/xlink" version="1.1"><g stroke-width="1" stroke-linejoin="bevel"><path d="M524 204L584 157L479 120Z" fill="#fefefe" stroke="#fefefe"></path><path d="M524 204L639 214L584 157Z" fill="#fdfdfd" stroke="#fdfdfd"></path><path d="M832 75L598 0L584 157Z" fill="#f8f8f8" stroke="#f8f8f8"></path><path d="M584 157L598 0L479 120Z" fill="#f7f7f7" stroke="#f7f7f7"></path><path d="M598 0L449 0L479 120Z" fill="#f6f6f6" stroke="#f6f6f6"></path><path d="M334 76L344 213L479 120Z" fill="#fcfcfc" stroke="#fcfcfc"></path><path d="M479 120L344 213L524 204Z" fill="#fdfdfd" stroke="#fdfdfd"></path><path d="M524 204L659 460L639 214Z" fill="#ffffff" stroke="#ffffff"></path><path d="M449 0L334 76L479 120Z" fill="#fcfcfc" stroke="#fcfcfc"></path><path d="M449 0L322 0L334 76Z" fill="#ffffff" stroke="#ffffff"></path><path d="M334 76L229 160L344 213Z" fill="#fdfdfd" stroke="#fdfdfd"></path><path d="M322 0L229 160L334 76Z" fill="#fcfcfc" stroke="#fcfcfc"></path><path d="M276 338L412 433L344 213Z" fill="#f8f8f8" stroke="#f8f8f8"></path><path d="M344 213L412 433L524 204Z" fill="#f7f7f7" stroke="#f7f7f7"></path><path d="M872 332L832 75L639 214Z" fill="#f7f7f7" stroke="#f7f7f7"></path><path d="M639 214L832 75L584 157Z" fill="#fafafa" stroke="#fafafa"></path><path d="M201 211L276 338L344 213Z" fill="#fefefe" stroke="#fefefe"></path><path d="M229 160L201 211L344 213Z" fill="#f9f9f9" stroke="#f9f9f9"></path><path d="M412 433L659 460L524 204Z" fill="#fafafa" stroke="#fafafa"></path><path d="M832 75L833 0L598 0Z" fill="#f8f8f8" stroke="#f8f8f8"></path><path d="M201 211L228 352L276 338Z" fill="#f6f6f6" stroke="#f6f6f6"></path><path d="M276 338L387 540L412 433Z" fill="#fefefe" stroke="#fefefe"></path><path d="M659 460L789 424L639 214Z" fill="#ffffff" stroke="#ffffff"></path><path d="M789 424L872 332L639 214Z" fill="#f7f7f7" stroke="#f7f7f7"></path><path d="M832 75L960 0L833 0Z" fill="#fcfcfc" stroke="#fcfcfc"></path><path d="M412 433L475 540L659 460Z" fill="#f8f8f8" stroke="#f8f8f8"></path><path d="M659 460L740 540L789 424Z" fill="#f8f8f8" stroke="#f8f8f8"></path><path d="M387 540L475 540L412 433Z" fill="#f8f8f8" stroke="#f8f8f8"></path><path d="M475 540L638 540L659 460Z" fill="#fefefe" stroke="#fefefe"></path><path d="M228 352L387 540L276 338Z" fill="#f7f7f7" stroke="#f7f7f7"></path><path d="M872 332L960 185L832 75Z" fill="#fdfdfd" stroke="#fdfdfd"></path><path d="M960 477L960 289L872 332Z" fill="#fefefe" stroke="#fefefe"></path><path d="M638 540L740 540L659 460Z" fill="#fcfcfc" stroke="#fcfcfc"></path><path d="M960 477L872 332L789 424Z" fill="#f8f8f8" stroke="#f8f8f8"></path><path d="M872 332L960 289L960 185Z" fill="#fbfbfb" stroke="#fbfbfb"></path><path d="M960 185L960 0L832 75Z" fill="#fbfbfb" stroke="#fbfbfb"></path><path d="M322 0L90 0L229 160Z" fill="#f8f8f8" stroke="#f8f8f8"></path><path d="M229 160L0 165L201 211Z" fill="#ffffff" stroke="#ffffff"></path><path d="M201 211L0 250L228 352Z" fill="#fdfdfd" stroke="#fdfdfd"></path><path d="M90 0L0 165L229 160Z" fill="#f8f8f8" stroke="#f8f8f8"></path><path d="M228 352L106 540L387 540Z" fill="#ffffff" stroke="#ffffff"></path><path d="M0 165L0 250L201 211Z" fill="#fcfcfc" stroke="#fcfcfc"></path><path d="M960 540L960 477L789 424Z" fill="#f9f9f9" stroke="#f9f9f9"></path><path d="M90 0L0 0L0 165Z" fill="#fefefe" stroke="#fefefe"></path><path d="M0 443L106 540L228 352Z" fill="#fefefe" stroke="#fefefe"></path><path d="M740 540L960 540L789 424Z" fill="#f7f7f7" stroke="#f7f7f7"></path><path d="M0 250L0 443L228 352Z" fill="#f8f8f8" stroke="#f8f8f8"></path><path d="M0 443L0 540L106 540Z" fill="#fefefe" stroke="#fefefe"></path></g></svg>