<svg id="visual" viewBox="0 0 960 540" width="960" height="540" xmlns="http://www.w3.org/2000/svg" xmlns:xlink="http://www.w3.org/1999/xlink" version="1.1"><g stroke-width="1" stroke-linejoin="bevel"><path d="M440 366L208 540L435 540Z" fill="#f2f2f2" stroke="#f2f2f2"></path><path d="M440 366L262 317L208 540Z" fill="#fdfdfd" stroke="#fdfdfd"></path><path d="M463 163L247 212L262 317Z" fill="#fcfcfc" stroke="#fcfcfc"></path><path d="M0 318L0 540L208 540Z" fill="#f4f4f4" stroke="#f4f4f4"></path><path d="M677 313L463 163L440 366Z" fill="#ffffff" stroke="#ffffff"></path><path d="M440 366L463 163L262 317Z" fill="#fdfdfd" stroke="#fdfdfd"></path><path d="M0 318L208 540L262 317Z" fill="#efefef" stroke="#efefef"></path><path d="M247 212L0 318L262 317Z" fill="#fafafa" stroke="#fafafa"></path><path d="M435 540L682 540L440 366Z" fill="#f2f2f2" stroke="#f2f2f2"></path><path d="M682 540L677 313L440 366Z" fill="#f1f1f1" stroke="#f1f1f1"></path><path d="M0 0L0 212L247 212Z" fill="#fdfdfd" stroke="#fdfdfd"></path><path d="M247 212L0 212L0 318Z" fill="#f9f9f9" stroke="#f9f9f9"></path><path d="M524 0L271 0L463 163Z" fill="#f1f1f1" stroke="#f1f1f1"></path><path d="M463 163L271 0L247 212Z" fill="#fcfcfc" stroke="#fcfcfc"></path><path d="M960 317L750 208L677 313Z" fill="#f9f9f9" stroke="#f9f9f9"></path><path d="M677 313L750 208L463 163Z" fill="#f4f4f4" stroke="#f4f4f4"></path><path d="M750 208L524 0L463 163Z" fill="#efefef" stroke="#efefef"></path><path d="M271 0L0 0L247 212Z" fill="#f5f5f5" stroke="#f5f5f5"></path><path d="M750 208L742 0L524 0Z" fill="#fcfcfc" stroke="#fcfcfc"></path><path d="M682 540L960 317L677 313Z" fill="#f2f2f2" stroke="#f2f2f2"></path><path d="M750 208L960 191L742 0Z" fill="#f5f5f5" stroke="#f5f5f5"></path><path d="M960 540L960 317L682 540Z" fill="#f9f9f9" stroke="#f9f9f9"></path><path d="M960 317L960 191L750 208Z" fill="#ffffff" stroke="#ffffff"></path><path d="M960 191L960 0L742 0Z" fill="#fcfcfc" stroke="#fcfcfc"></path></g></svg>